<svg width="32" height="32" viewBox="0 0 32 32" fill="none" xmlns="http://www.w3.org/2000/svg">
<circle cx="16" cy="16" r="16" fill="#5356FB" fill-opacity="0.16"/>
<path d="M18.6953 17.4736H13.3047C12.4285 17.4747 11.5886 17.8214 10.9691 18.4376C10.3496 19.0539 10.0011 19.8894 10 20.7609V24.1052H22V20.7609C21.9989 19.8894 21.6504 19.0539 21.0309 18.4376C20.4114 17.8214 19.5715 17.4747 18.6953 17.4736Z" fill="#A7A9B5"/>
<path d="M15.9998 15.8947C18.2671 15.8947 20.1051 14.1274 20.1051 11.9474C20.1051 9.7673 18.2671 8 15.9998 8C13.7325 8 11.8945 9.7673 11.8945 11.9474C11.8945 14.1274 13.7325 15.8947 15.9998 15.8947Z" fill="#A7A9B5"/>
</svg>
