<svg id="Layer_1" data-name="Layer 1" xmlns="http://www.w3.org/2000/svg" xmlns:xlink="http://www.w3.org/1999/xlink" viewBox="0 0 1080 1080"><defs><style>.cls-1{fill:#fff;}.cls-2{mask:url(#mask);}.cls-3{fill:url(#linear-gradient);}.cls-10,.cls-13,.cls-16,.cls-4,.cls-7{fill-rule:evenodd;}.cls-4{fill:url(#linear-gradient-2);}.cls-5{mask:url(#mask-2);}.cls-6{fill:url(#linear-gradient-3);}.cls-7{fill:url(#linear-gradient-4);}.cls-8{mask:url(#mask-3);}.cls-9{fill:url(#linear-gradient-5);}.cls-10{fill:url(#linear-gradient-6);}.cls-11{mask:url(#mask-4);}.cls-12{fill:url(#linear-gradient-7);}.cls-13{fill:url(#linear-gradient-8);}.cls-14{mask:url(#mask-5);}.cls-15{fill:url(#linear-gradient-9);}.cls-16{fill:url(#linear-gradient-10);}.cls-17{mask:url(#mask-6);}.cls-18{fill:url(#linear-gradient-11);}</style><mask id="mask" x="34.26" y="30.34" width="495.33" height="760.24" maskUnits="userSpaceOnUse"><g id="mask0_415_11344" data-name="mask0 415 11344"><path class="cls-1" d="M85.09,790.58c-18.36-41.25-9.28-104.3-9.28-252.21C75.81,222.15,34.26,294.11,308.1,136,321.3,128.37,479,37.21,490.78,30.34L408,403.54l95.17,24.81c17.68,7,26.52,16.58-6.22,40.19Z"/></g></mask><linearGradient id="linear-gradient" x1="577.09" y1="1201.36" x2="-151.09" y2="-105.71" gradientTransform="matrix(1, 0, 0, -1, 0, 1082)" gradientUnits="userSpaceOnUse"><stop offset="0" stop-color="#021b8c"/><stop offset="0.33" stop-color="#0849ae"/><stop offset="1" stop-color="#15aff7"/></linearGradient><linearGradient id="linear-gradient-2" x1="478.76" y1="1250.63" x2="-229.12" y2="-19.95" gradientTransform="matrix(1, 0, 0, -1, 0, 1082)" gradientUnits="userSpaceOnUse"><stop offset="0" stop-color="#021b8c"/><stop offset="0.18" stop-color="#0740a7"/><stop offset="0.45" stop-color="#0d70c9"/><stop offset="0.68" stop-color="#1192e2"/><stop offset="0.87" stop-color="#14a7f1"/><stop offset="1" stop-color="#15aff7"/></linearGradient><mask id="mask-2" x="34.26" y="30.34" width="456.52" height="760.24" maskUnits="userSpaceOnUse"><g id="mask1_415_11344" data-name="mask1 415 11344"><path class="cls-1" d="M85.09,790.58c-18.36-41.25-9.28-104.3-9.28-252.21C75.81,222.15,34.26,294.11,308.1,136,321.3,128.37,479,37.21,490.78,30.34L85.12,790.52"/></g></mask><linearGradient id="linear-gradient-3" x1="685.31" y1="248.75" x2="-341.73" y2="1275.76" xlink:href="#linear-gradient-2"/><linearGradient id="linear-gradient-4" x1="1113.85" y1="237.12" x2="584.67" y2="974.82" gradientTransform="matrix(1, 0, 0, -1, 0, 1082)" gradientUnits="userSpaceOnUse"><stop offset="0" stop-color="#e03136"/><stop offset="0.21" stop-color="#da2e33"/><stop offset="0.47" stop-color="#ca242b"/><stop offset="0.77" stop-color="#b0141d"/><stop offset="1" stop-color="#96050f"/></linearGradient><mask id="mask-3" x="549.68" y="20" width="496.92" height="731.42" maskUnits="userSpaceOnUse"><g id="mask2_415_11344" data-name="mask2 415 11344"><path class="cls-1" d="M549.68,20c45,4.77,95,44.2,223.08,118.06,274,158.11,232.33,86.16,232.33,402.37,0,15.2,0,197.41.17,211L723.46,493.14l-69.06,70c-15,11.78-27.61,14.73-31.73-25.49Z"/></g></mask><linearGradient id="linear-gradient-5" x1="1139.19" y1="220.84" x2="595.19" y2="979.22" xlink:href="#linear-gradient-4"/><linearGradient id="linear-gradient-6" x1="549.68" y1="696.29" x2="1007.36" y2="696.29" gradientTransform="matrix(1, 0, 0, -1, 0, 1082)" gradientUnits="userSpaceOnUse"><stop offset="0" stop-color="#e03136"/><stop offset="0.09" stop-color="#d2292f"/><stop offset="0.3" stop-color="#b81921"/><stop offset="0.51" stop-color="#a50e17"/><stop offset="0.73" stop-color="#9a0711"/><stop offset="0.97" stop-color="#96050f"/></linearGradient><mask id="mask-4" x="549.68" y="20" width="496.92" height="731.42" maskUnits="userSpaceOnUse"><g id="mask3_415_11344" data-name="mask3 415 11344"><path class="cls-1" d="M549.68,20c45,4.77,95,44.2,223.08,118.06,274,158.11,232.33,86.16,232.33,402.37,0,15.2,0,197.41.17,211Z"/></g></mask><linearGradient id="linear-gradient-7" x1="1254.48" y1="432.83" x2="637.2" y2="789.2" gradientTransform="matrix(1, 0, 0, -1, 0, 1082)" gradientUnits="userSpaceOnUse"><stop offset="0" stop-color="#e03136"/><stop offset="0.37" stop-color="#d2292f"/><stop offset="0.48" stop-color="#b81921"/><stop offset="0.68" stop-color="#a50e17"/><stop offset="0.85" stop-color="#9a0711"/><stop offset="0.97" stop-color="#96050f"/></linearGradient><linearGradient id="linear-gradient-8" x1="-70.95" y1="249.66" x2="1145.83" y2="249.66" gradientTransform="matrix(1, 0, 0, -1, 0, 1082)" gradientUnits="userSpaceOnUse"><stop offset="0.12" stop-color="#855439"/><stop offset="0.34" stop-color="#89583d"/><stop offset="0.58" stop-color="#966349"/><stop offset="0.7" stop-color="#a06c52"/></linearGradient><mask id="mask-5" x="123.54" y="595.53" width="861.36" height="504.37" maskUnits="userSpaceOnUse"><g id="mask4_415_11344" data-name="mask4 415 11344"><path class="cls-1" d="M984.9,807.64c-26.52,36.57-85.71,60.22-213.79,134.15-273.84,158.11-190.78,158.11-464.63,0-13.17-7.6-170.89-98.7-182.68-105.33L488.37,721.55l-26.08-94.82c-2.8-18.86,1.15-31.2,37.92-14.73Z"/></g></mask><linearGradient id="linear-gradient-9" x1="-70.95" y1="234.29" x2="1145.83" y2="234.29" xlink:href="#linear-gradient-8"/><linearGradient id="linear-gradient-10" x1="-70.95" y1="147.99" x2="1036.88" y2="147.99" gradientTransform="matrix(1, 0, 0, -1, 0, 1082)" gradientUnits="userSpaceOnUse"><stop offset="0" stop-color="#a06c52"/><stop offset="0.77" stop-color="#8c5a3f"/><stop offset="0.98" stop-color="#855439"/></linearGradient><mask id="mask-6" x="123.54" y="807.64" width="861.36" height="292.26" maskUnits="userSpaceOnUse"><g id="mask5_415_11344" data-name="mask5 415 11344"><path class="cls-1" d="M984.9,807.64c-26.52,36.57-85.71,60.22-213.79,134.15-273.84,158.11-190.78,158.11-464.63,0-13.17-7.6-170.89-98.7-182.68-105.33Z"/></g></mask><linearGradient id="linear-gradient-11" x1="554.15" y1="50.84" x2="554.15" y2="426.81" gradientTransform="matrix(1, 0, 0, -1, 0, 1082)" gradientUnits="userSpaceOnUse"><stop offset="0" stop-color="#af897b"/><stop offset="0.1" stop-color="#a27764"/><stop offset="0.23" stop-color="#96674f"/><stop offset="0.35" stop-color="#8e5d43"/><stop offset="0.47" stop-color="#8c5a3f"/><stop offset="0.98" stop-color="#855439"/></linearGradient></defs><g class="cls-2"><path class="cls-3" d="M529.59,30.34H34.26V790.58H529.59Z"/></g><path class="cls-4" d="M85.09,790.58c-18.36-41.25-9.28-104.3-9.28-252.21C75.81,222.15,34.26,294.11,308.1,136,321.3,128.37,479,37.21,490.78,30.34L85.12,790.52"/><g class="cls-5"><path class="cls-6" d="M490.75,30.34H34.26V790.58H490.75Z"/></g><path class="cls-7" d="M549.68,20c45,4.77,95,44.2,223.08,118.06,274,158.11,232.33,86.16,232.33,402.37,0,15.2,0,197.41.17,211L723.46,493.14l-69.06,70c-15,11.78-27.61,14.73-31.73-25.49Z"/><g class="cls-8"><path class="cls-9" d="M1046.6,20H549.68V751.42H1046.6Z"/></g><path class="cls-10" d="M549.68,20c45,4.77,95,44.2,223.08,118.06,274,158.11,232.33,86.16,232.33,402.37,0,15.2,0,197.41.17,211Z"/><g class="cls-11"><path class="cls-12" d="M1046.6,20H549.68V751.42H1046.6Z"/></g><path class="cls-13" d="M984.9,807.64c-26.52,36.57-85.71,60.22-213.79,134.15-273.84,158.11-190.78,158.11-464.63,0-13.17-7.6-170.89-98.7-182.68-105.33L488.37,721.55l-26.08-94.82c-2.8-18.86,1.15-31.2,37.92-14.73Z"/><g class="cls-14"><path class="cls-15" d="M984.76,595.53H123.54V1099.9H984.76Z"/></g><path class="cls-16" d="M984.9,807.64c-26.52,36.57-85.71,60.22-213.79,134.15-273.84,158.11-190.78,158.11-464.63,0-13.17-7.6-170.89-98.7-182.68-105.33Z"/><g class="cls-17"><path class="cls-18" d="M984.76,807.64H123.54V1099.9H984.76Z"/></g></svg>