<svg width="68" height="74" viewBox="0 0 68 74" fill="none" xmlns="http://www.w3.org/2000/svg">
<ellipse cx="34" cy="36.8922" rx="34" ry="36.8922" fill="url(#paint0_linear_103_888)"/>
<path d="M41.9031 22.2526C41.9031 22.7602 41.8957 23.2221 41.905 23.6819C41.944 25.591 41.6394 27.4125 40.7202 29.0808C40.1482 30.1179 39.4035 30.9958 38.577 31.8001C37.8918 32.467 37.1935 33.1199 36.5175 33.7968C36.2779 34.0357 36.0681 34.3144 35.8786 34.601C35.1414 35.7258 35.1172 37.0396 35.9362 38.0947C36.5509 38.885 37.2845 39.5738 37.9976 40.2706C38.8278 41.0828 39.6542 41.893 40.3097 42.8784C41.3646 44.465 41.8567 46.2447 41.8957 48.1777C41.9106 48.8924 41.8976 49.609 41.8976 50.3834C42.1576 50.3834 42.3897 50.3794 42.6219 50.3834C43.4408 50.4013 44.011 50.9966 43.9998 51.8207C43.9906 52.615 43.4018 53.1943 42.5921 53.1943C36.5193 53.1963 30.4484 53.1963 24.3756 53.1943C23.6736 53.1943 23.1165 52.7066 23.0162 52.0138C22.9159 51.333 23.2892 50.6661 23.9039 50.4591C24.0673 50.4033 24.2475 50.3954 24.4202 50.3854C24.6338 50.3735 24.8492 50.3834 25.1036 50.3834C25.1036 49.9594 25.1111 49.5652 25.1018 49.1711C25.0739 47.7736 25.1798 46.396 25.6236 45.0662C26.177 43.4 27.1669 42.0662 28.3684 40.8937C29.0686 40.2109 29.7817 39.544 30.4744 38.8512C30.7066 38.6203 30.9108 38.3515 31.0984 38.0768C31.8543 36.972 31.8988 35.6481 31.0947 34.5851C30.5171 33.8207 29.817 33.1558 29.1354 32.4869C28.2997 31.6667 27.4547 30.8625 26.7769 29.879C25.6775 28.2825 25.1575 26.4769 25.1092 24.5081C25.0906 23.7715 25.1055 23.035 25.1055 22.2526C24.8381 22.2526 24.6041 22.2586 24.3701 22.2506C23.5474 22.2267 22.9884 21.6295 23.0032 20.7994C23.0181 20.021 23.6049 19.4397 24.3923 19.4397C30.4651 19.4377 36.5361 19.4377 42.6089 19.4397C43.3963 19.4397 43.985 20.019 43.998 20.7994C44.0128 21.6295 43.4501 22.2287 42.6311 22.2506C42.4064 22.2566 42.1799 22.2526 41.9031 22.2526ZM26.1585 50.3635C31.065 50.3635 35.9381 50.3635 40.8464 50.3635C40.8464 49.5971 40.8669 48.8486 40.8427 48.1021C40.7814 46.1173 40.189 44.3396 38.9373 42.8525C38.4359 42.2573 37.875 41.7178 37.3328 41.1584C36.6512 40.4557 35.9269 39.7948 35.2881 39.0523C34.5471 38.1903 34.2072 37.1392 34.3038 35.9507C34.3892 34.9016 34.8349 34.0257 35.5072 33.2991C36.1869 32.5645 36.9075 31.8698 37.6373 31.1909C39.4295 29.5247 40.6812 27.5459 40.813 24.9241C40.8557 24.0482 40.8204 23.1663 40.8204 22.2705C35.9381 22.2705 31.065 22.2705 26.1566 22.2705C26.1566 23.027 26.138 23.7636 26.1603 24.4981C26.216 26.3973 26.7397 28.1252 27.9097 29.5745C28.4539 30.2473 29.0742 30.8485 29.6703 31.4716C30.3686 32.2022 31.1077 32.891 31.7725 33.6574C32.3371 34.3084 32.6398 35.1206 32.703 36.0224C32.7977 37.39 32.2777 38.5008 31.4085 39.4325C30.7474 40.1412 30.038 40.7981 29.3379 41.465C28.0026 42.7411 26.9013 44.1744 26.4296 46.0795C26.086 47.481 26.1622 48.9023 26.1585 50.3635Z" fill="white"/>
<path d="M26.8887 27.0337C31.2917 27.0337 35.6611 27.0337 40.1109 27.0337C39.9108 27.5386 39.7518 28.0255 39.5348 28.4804C38.9194 29.7675 37.9393 30.7234 36.9498 31.6712C36.2428 32.3497 35.5376 33.0401 34.8905 33.7804C34.161 34.6146 33.785 35.6363 33.7439 36.7857C33.7364 36.9772 33.7158 37.1548 33.4914 37.1608C33.2707 37.1668 33.222 37.0012 33.2164 36.8036C33.1884 35.4307 32.6235 34.3073 31.7388 33.3654C31.0055 32.5851 30.2162 31.8668 29.4493 31.1225C28.4112 30.1147 27.5171 28.9953 27.0439 27.5545C26.9878 27.3949 26.9448 27.2273 26.8887 27.0337Z" fill="white"/>
<path d="M26.8887 49.7054C27.0078 49.6126 27.0953 49.5335 27.1921 49.47C29.1128 48.2377 31.0336 47.0072 32.9544 45.7785C33.323 45.543 33.6431 45.5413 34.0116 45.7733C34.2331 45.9125 34.4527 46.0534 34.6724 46.1926C34.6835 46.0655 34.6593 45.9314 34.7152 45.8403C34.7729 45.7475 34.9032 45.6547 35.0167 45.6341C35.2568 45.5894 35.4113 45.7218 35.4559 45.9366C35.5025 46.1566 35.3238 46.3095 34.9404 46.3611C36.6751 47.4764 38.3799 48.5711 40.1109 49.6848C39.8112 49.8601 27.1865 49.8635 26.8887 49.7054Z" fill="white"/>
<path d="M33.5247 39.6926C33.7341 39.7263 33.87 39.8653 33.8884 40.1154C33.9031 40.3457 33.6937 40.5601 33.4788 40.5343C33.2474 40.5065 33.1151 40.3537 33.1114 40.0995C33.1059 39.8812 33.3006 39.6886 33.5247 39.6926Z" fill="white"/>
<path d="M34.6664 44.3256C34.6374 44.5841 34.5141 44.7504 34.2837 44.7564C34.057 44.7624 33.9118 44.6101 33.8901 44.3537C33.8701 44.1173 34.066 43.9029 34.2801 43.9129C34.5195 43.923 34.6302 44.0852 34.6664 44.3256Z" fill="white"/>
<path d="M33.1108 45.1478C33.1033 45.4268 32.9634 45.5704 32.7303 45.5983C32.5195 45.6242 32.3312 45.4229 32.333 45.1876C32.3349 44.9265 32.4654 44.767 32.7079 44.757C32.956 44.7471 33.0828 44.9065 33.1108 45.1478Z" fill="white"/>
<path d="M34.6662 40.9456C34.6735 41.1771 34.5037 41.3784 34.2901 41.3804C34.0472 41.3824 33.9121 41.2355 33.8902 40.9778C33.8701 40.7503 34.0545 40.5449 34.2627 40.5369C34.4708 40.5268 34.6589 40.7181 34.6662 40.9456Z" fill="white"/>
<path d="M33.489 43.0685C33.2734 43.0544 33.1345 42.9147 33.1126 42.6557C33.0943 42.423 33.2734 42.2246 33.489 42.2246C33.7339 42.2226 33.8618 42.3805 33.8873 42.6355C33.9093 42.8581 33.7247 43.0605 33.489 43.0685Z" fill="white"/>
<path d="M34.2856 39.6925C34.0513 39.6784 33.914 39.5381 33.8902 39.2816C33.8701 39.0531 34.0513 38.8547 34.2654 38.8487C34.4759 38.8426 34.6736 39.031 34.6663 39.2555C34.6571 39.5121 34.5308 39.6644 34.2856 39.6925Z" fill="white"/>
<path d="M33.8889 37.5569C33.8963 37.8124 33.7281 38.0071 33.5076 38.0051C33.2628 38.001 33.1151 37.8611 33.1114 37.5934C33.1077 37.3277 33.2478 37.1655 33.4908 37.1614C33.7319 37.1533 33.8683 37.3074 33.8889 37.5569Z" fill="white"/>
<defs>
<linearGradient id="paint0_linear_103_888" x1="0" y1="0" x2="77.5348" y2="69.936" gradientUnits="userSpaceOnUse">
<stop stop-color="#F539F8"/>
<stop offset="0.416763" stop-color="#C342F9"/>
<stop offset="1" stop-color="#5356FB"/>
</linearGradient>
</defs>
</svg>
