<svg width="68" height="75" viewBox="0 0 68 75" fill="none" xmlns="http://www.w3.org/2000/svg">
<ellipse opacity="0.1" cx="34" cy="37.7993" rx="34" ry="36.8922" fill="url(#paint0_linear_103_872)"/>
<path d="M43.6099 30.5064C43.6099 30.679 43.6194 30.849 43.6099 31.0216C43.4817 33.1417 43.8663 34.9759 44.975 36.9053C48.3462 42.771 46.8458 50.4889 41.7961 54.7987C36.8484 59.0208 29.6121 58.655 25.0539 53.9511C20.3531 49.103 19.6433 41.3594 23.4347 35.6766C23.9594 34.8909 24.1778 34.1438 24.1541 33.201C24.109 31.3153 24.1185 29.427 24.1446 27.5388C24.23 21.7658 28.5913 17.165 33.9378 17.183C39.2012 17.2011 43.5173 21.8199 43.6075 27.5439C43.6217 28.5332 43.6075 29.5198 43.6099 30.5064ZM32.2688 51.0814C32.2688 51.6121 32.2593 52.0783 32.2711 52.5446C32.302 53.8326 32.8172 54.4689 33.8404 54.4973C34.9135 54.5282 35.5427 53.8558 35.4857 52.524C35.4429 51.5039 35.6875 50.9835 36.6419 50.5688C39.251 49.4327 40.8488 46.5269 40.7206 43.5155C40.59 40.4294 38.7145 37.7426 36.0104 36.7765C33.3062 35.8105 30.3196 36.7559 28.5414 39.18C25.4717 43.3635 27.2547 49.4997 32.2688 51.0814ZM41.0197 32.0881C41.0197 30.46 41.0363 29.0509 41.0173 27.6393C40.9627 23.7674 38.2847 20.4933 34.8304 20.0528C31.1458 19.5813 27.7532 21.9616 26.9935 25.8541C26.6113 27.8093 26.7442 29.883 26.6326 32.1654C31.5375 29.0612 36.1908 29.0844 41.0197 32.0881Z" fill="url(#paint1_linear_103_872)"/>
<path d="M34.3603 50.0974C34.0161 50.0974 33.6718 50.0974 33.2564 50.0974C33.197 49.6826 33.1377 49.2756 33.0759 48.8506C32.3661 48.629 31.6657 48.4101 30.8799 48.1653C31.0152 47.56 31.122 47.0808 31.2336 46.5682C32.0028 46.7382 32.689 47.0164 33.3679 46.9958C33.838 46.9829 34.301 46.5579 34.7663 46.3183C34.4529 45.8933 34.2036 45.3652 33.8072 45.0715C33.2967 44.6928 32.6296 44.5717 32.0978 44.2162C30.5071 43.1523 30.5974 40.9627 32.1975 39.9219C32.7056 39.5922 33.0902 39.0409 33.5318 38.5901C33.4582 38.4716 33.3869 38.3506 33.3133 38.2321C33.6837 38.2321 34.0541 38.2321 34.4767 38.2321C34.5313 38.6365 34.5811 39.0049 34.6286 39.3475C35.2696 39.5484 35.8631 39.7313 36.5184 39.9374C36.3783 40.4938 36.2667 40.9343 36.148 41.4032C35.3978 41.3027 34.7093 41.1353 34.0208 41.1507C33.7003 41.1585 33.3869 41.5243 33.0712 41.7278C33.2682 42.0549 33.3988 42.5032 33.6766 42.6835C34.2464 43.0544 34.904 43.2579 35.507 43.5748C36.4021 44.0462 36.8982 44.8396 36.884 45.9267C36.8698 47.0061 36.3285 47.7274 35.4975 48.3044C34.999 48.6496 34.6262 49.2086 34.1965 49.6698C34.2511 49.814 34.3057 49.9557 34.3603 50.0974Z" fill="url(#paint2_linear_103_872)"/>
<defs>
<linearGradient id="paint0_linear_103_872" x1="0" y1="0.907104" x2="77.5348" y2="70.8431" gradientUnits="userSpaceOnUse">
<stop stop-color="#F539F8"/>
<stop offset="0.416763" stop-color="#C342F9"/>
<stop offset="1" stop-color="#5356FB"/>
</linearGradient>
<linearGradient id="paint1_linear_103_872" x1="15" y1="26" x2="53" y2="61.5" gradientUnits="userSpaceOnUse">
<stop stop-color="#F539F8"/>
<stop offset="0.447917" stop-color="#C342F9"/>
<stop offset="1" stop-color="#6753FB"/>
</linearGradient>
<linearGradient id="paint2_linear_103_872" x1="33.8821" y1="38.2321" x2="33.8821" y2="50.0974" gradientUnits="userSpaceOnUse">
<stop stop-color="#F539F8"/>
<stop offset="0.447917" stop-color="#C342F9"/>
<stop offset="1" stop-color="#6753FB"/>
</linearGradient>
</defs>
</svg>
