<svg width="68" height="75" viewBox="0 0 68 75" fill="none" xmlns="http://www.w3.org/2000/svg">
<ellipse opacity="0.1" cx="34" cy="37.7993" rx="34" ry="36.8922" fill="url(#paint0_linear_22_4751)"/>
<path d="M49.4474 51.0535C48.9672 52.173 48.3095 53.0056 47.0359 52.9791C46.3174 52.964 45.8232 52.56 45.3535 52.0484C41.4666 47.8252 37.5745 43.6058 33.6911 39.3808C33.5032 39.175 33.3657 38.9164 33.1222 38.5633C32.3166 39.4695 31.6363 40.236 31.0134 40.9364C28.4889 38.2367 25.9696 35.5408 23.4902 32.8903C26.0009 30.1736 28.5045 27.4645 30.9438 24.8271C33.3971 27.4891 35.8973 30.2019 38.4758 32.996C37.8146 33.6379 37.096 34.3364 36.3427 35.0689C36.595 35.3709 36.7463 35.5654 36.9116 35.7466C40.628 39.8093 44.3565 43.8607 48.052 47.9479C48.6001 48.554 48.9881 49.3336 49.4491 50.0322C49.4474 50.3701 49.4474 50.7118 49.4474 51.0535Z" fill="url(#paint1_linear_22_4751)"/>
<path d="M19 52.0766C19.3515 51.1156 20.0004 50.7135 20.9469 50.806C21.3645 50.8476 21.7873 50.8136 22.3336 50.8136C22.1961 50.6418 22.1526 50.5644 22.0918 50.5172C21.4254 49.9942 21.234 49.2825 21.4567 48.4594C21.6463 47.7609 22.2692 47.3928 23.1983 47.389C26.3823 47.3814 29.5662 47.3814 32.7485 47.3871C33.6723 47.389 34.1578 47.7477 34.4048 48.5557C34.6415 49.3316 34.4187 49.898 33.6341 50.5134C33.5697 50.5625 33.5123 50.621 33.4792 50.8287C33.9594 50.8287 34.4396 50.8325 34.9216 50.8287C36.0142 50.8174 36.6197 51.2176 36.7867 52.0709C36.9642 52.9714 36.5692 53.636 35.5705 54.123C30.4518 54.123 25.3314 54.123 20.2127 54.123C19.809 53.685 19.4037 53.2452 19 52.8072C19 52.5636 19 52.3201 19 52.0766Z" fill="url(#paint2_linear_22_4751)"/>
<path d="M34.6278 21.5232C35.0193 21.8706 35.4403 22.1878 35.7987 22.5729C37.3942 24.2795 38.9723 26.005 40.5521 27.7268C41.5751 28.8406 41.5508 29.6732 40.4738 30.7493C40.2459 30.9777 40.0075 31.1948 39.8648 31.3307C37.3037 28.5593 34.7792 25.8238 32.1729 23.0033C32.7314 22.5389 33.342 22.0311 33.9527 21.5232C34.1789 21.5232 34.4034 21.5232 34.6278 21.5232Z" fill="url(#paint3_linear_22_4751)"/>
<path d="M29.6615 42.5335C29.3031 42.8979 28.9412 43.2962 28.5514 43.6568C27.9616 44.2043 27.163 44.2137 26.601 43.6115C24.7028 41.5782 22.8203 39.5242 20.9517 37.457C20.4332 36.885 20.4297 36.0241 20.8995 35.3973C21.237 34.9461 21.6215 34.5346 21.9434 34.1551C24.5097 36.9416 27.0534 39.7036 29.6615 42.5335Z" fill="url(#paint4_linear_22_4751)"/>
<defs>
<linearGradient id="paint0_linear_22_4751" x1="0" y1="0.907074" x2="77.5348" y2="70.8431" gradientUnits="userSpaceOnUse">
<stop stop-color="#F539F8"/>
<stop offset="0.416763" stop-color="#C342F9"/>
<stop offset="1" stop-color="#5356FB"/>
</linearGradient>
<linearGradient id="paint1_linear_22_4751" x1="23.4902" y1="24.8271" x2="53.0754" y2="51.5265" gradientUnits="userSpaceOnUse">
<stop stop-color="#F539F8"/>
<stop offset="0.416763" stop-color="#C342F9"/>
<stop offset="1" stop-color="#5356FB"/>
</linearGradient>
<linearGradient id="paint2_linear_22_4751" x1="19" y1="47.3831" x2="23.7866" y2="59.7746" gradientUnits="userSpaceOnUse">
<stop stop-color="#F539F8"/>
<stop offset="0.416763" stop-color="#C342F9"/>
<stop offset="1" stop-color="#5356FB"/>
</linearGradient>
<linearGradient id="paint3_linear_22_4751" x1="32.1729" y1="21.5232" x2="42.4888" y2="30.9202" gradientUnits="userSpaceOnUse">
<stop stop-color="#F539F8"/>
<stop offset="0.416763" stop-color="#C342F9"/>
<stop offset="1" stop-color="#5356FB"/>
</linearGradient>
<linearGradient id="paint4_linear_22_4751" x1="20.5547" y1="34.1551" x2="30.9655" y2="43.5183" gradientUnits="userSpaceOnUse">
<stop stop-color="#F539F8"/>
<stop offset="0.416763" stop-color="#C342F9"/>
<stop offset="1" stop-color="#5356FB"/>
</linearGradient>
</defs>
</svg>
