<svg width="68" height="75" viewBox="0 0 68 75" fill="none" xmlns="http://www.w3.org/2000/svg">
<ellipse opacity="0.1" cx="34" cy="37.7993" rx="34" ry="36.8922" fill="url(#paint0_linear_22_4760)"/>
<path d="M41.9031 23.2525C41.9031 23.7602 41.8957 24.222 41.905 24.6819C41.944 26.591 41.6394 28.4125 40.7202 30.0807C40.1482 31.1179 39.4035 31.9958 38.577 32.8C37.8918 33.4669 37.1935 34.1199 36.5175 34.7967C36.2779 35.0356 36.0681 35.3143 35.8786 35.601C35.1414 36.7257 35.1172 38.0396 35.9362 39.0947C36.5509 39.885 37.2845 40.5738 37.9976 41.2705C38.8278 42.0827 39.6542 42.893 40.3097 43.8784C41.3646 45.465 41.8567 47.2447 41.8957 49.1777C41.9106 49.8923 41.8976 50.609 41.8976 51.3834C42.1576 51.3834 42.3897 51.3794 42.6219 51.3834C43.4408 51.4013 44.011 51.9965 43.9998 52.8207C43.9906 53.615 43.4018 54.1943 42.5921 54.1943C36.5193 54.1962 30.4484 54.1962 24.3756 54.1943C23.6736 54.1943 23.1165 53.7065 23.0162 53.0138C22.9159 52.3329 23.2892 51.666 23.9039 51.459C24.0673 51.4033 24.2475 51.3953 24.4202 51.3854C24.6338 51.3734 24.8492 51.3834 25.1036 51.3834C25.1036 50.9593 25.1111 50.5652 25.1018 50.171C25.0739 48.7735 25.1798 47.396 25.6236 46.0662C26.177 44.3999 27.1669 43.0661 28.3684 41.8936C29.0686 41.2108 29.7817 40.5439 30.4744 39.8511C30.7066 39.6202 30.9108 39.3515 31.0984 39.0768C31.8543 37.9719 31.8988 36.6481 31.0947 35.585C30.5171 34.8206 29.817 34.1557 29.1354 33.4868C28.2997 32.6666 27.4547 31.8624 26.7769 30.879C25.6775 29.2824 25.1575 27.4768 25.1092 25.508C25.0906 24.7715 25.1055 24.0349 25.1055 23.2525C24.8381 23.2525 24.6041 23.2585 24.3701 23.2506C23.5474 23.2267 22.9884 22.6295 23.0032 21.7993C23.0181 21.021 23.6049 20.4397 24.3923 20.4397C30.4651 20.4377 36.5361 20.4377 42.6089 20.4397C43.3963 20.4397 43.985 21.019 43.998 21.7993C44.0128 22.6295 43.4501 23.2287 42.6311 23.2506C42.4064 23.2565 42.1799 23.2525 41.9031 23.2525ZM26.1585 51.3635C31.065 51.3635 35.9381 51.3635 40.8464 51.3635C40.8464 50.597 40.8669 49.8485 40.8427 49.102C40.7814 47.1173 40.189 45.3395 38.9373 43.8525C38.4359 43.2573 37.875 42.7178 37.3328 42.1584C36.6512 41.4557 35.9269 40.7947 35.2881 40.0522C34.5471 39.1902 34.2072 38.1391 34.3038 36.9507C34.3892 35.9016 34.8349 35.0256 35.5072 34.299C36.1869 33.5645 36.9075 32.8697 37.6373 32.1909C39.4295 30.5246 40.6812 28.5459 40.813 25.9241C40.8557 25.0482 40.8204 24.1663 40.8204 23.2705C35.9381 23.2705 31.065 23.2705 26.1566 23.2705C26.1566 24.0269 26.138 24.7635 26.1603 25.4981C26.216 27.3972 26.7397 29.1252 27.9097 30.5744C28.4539 31.2473 29.0741 31.8485 29.6703 32.4716C30.3686 33.2021 31.1077 33.8909 31.7725 34.6574C32.3371 35.3083 32.6398 36.1205 32.703 37.0223C32.7977 38.39 32.2777 39.5008 31.4085 40.4324C30.7474 41.1411 30.038 41.7981 29.3379 42.465C28.0026 43.741 26.9013 45.1743 26.4296 47.0794C26.086 48.4809 26.1622 49.9023 26.1585 51.3635Z" fill="url(#paint1_linear_22_4760)"/>
<path d="M26.8887 28.0336C31.2917 28.0336 35.6611 28.0336 40.1109 28.0336C39.9108 28.5385 39.7518 29.0254 39.5348 29.4803C38.9194 30.7674 37.9393 31.7233 36.9498 32.6711C36.2428 33.3496 35.5376 34.04 34.8905 34.7804C34.161 35.6145 33.785 36.6362 33.7439 37.7856C33.7364 37.9771 33.7158 38.1547 33.4914 38.1607C33.2707 38.1667 33.222 38.0011 33.2164 37.8035C33.1884 36.4306 32.6235 35.3072 31.7388 34.3653C31.0055 33.5851 30.2162 32.8667 29.4493 32.1224C28.4112 31.1146 27.5171 29.9952 27.0439 28.5544C26.9878 28.3948 26.9448 28.2272 26.8887 28.0336Z" fill="url(#paint2_linear_22_4760)"/>
<path d="M26.8887 50.7053C27.0078 50.6125 27.0953 50.5335 27.1921 50.4699C29.1128 49.2377 31.0336 48.0072 32.9544 46.7784C33.323 46.543 33.6431 46.5412 34.0116 46.7733C34.2331 46.9125 34.4527 47.0534 34.6724 47.1926C34.6835 47.0654 34.6593 46.9314 34.7152 46.8403C34.7729 46.7475 34.9032 46.6547 35.0167 46.634C35.2568 46.5894 35.4113 46.7217 35.4559 46.9365C35.5025 47.1565 35.3238 47.3094 34.9404 47.361C36.6751 48.4764 38.3799 49.5711 40.1109 50.6847C39.8112 50.86 27.1865 50.8635 26.8887 50.7053Z" fill="url(#paint3_linear_22_4760)"/>
<path d="M33.5247 40.6926C33.7341 40.7263 33.87 40.8653 33.8884 41.1155C33.9031 41.3458 33.6937 41.5602 33.4788 41.5344C33.2474 41.5066 33.1151 41.3537 33.1114 41.0996C33.1059 40.8812 33.3006 40.6886 33.5247 40.6926Z" fill="url(#paint4_linear_22_4760)"/>
<path d="M34.6664 45.3255C34.6374 45.584 34.5141 45.7503 34.2837 45.7563C34.057 45.7623 33.9118 45.61 33.8901 45.3536C33.8701 45.1172 34.066 44.9028 34.2801 44.9128C34.5195 44.9229 34.6302 45.0851 34.6664 45.3255Z" fill="url(#paint5_linear_22_4760)"/>
<path d="M33.1108 46.1477C33.1033 46.4268 32.9634 46.5703 32.7303 46.5982C32.5195 46.6241 32.3312 46.4228 32.333 46.1876C32.3349 45.9264 32.4654 45.7669 32.7079 45.757C32.956 45.747 33.0828 45.9065 33.1108 46.1477Z" fill="url(#paint6_linear_22_4760)"/>
<path d="M34.6662 41.9456C34.6735 42.1771 34.5037 42.3784 34.2901 42.3804C34.0472 42.3825 33.9121 42.2355 33.8902 41.9778C33.8701 41.7503 34.0545 41.545 34.2627 41.5369C34.4708 41.5268 34.6589 41.7181 34.6662 41.9456Z" fill="url(#paint7_linear_22_4760)"/>
<path d="M33.489 44.0685C33.2734 44.0543 33.1345 43.9147 33.1126 43.6556C33.0943 43.4229 33.2734 43.2245 33.489 43.2245C33.7339 43.2225 33.8618 43.3804 33.8873 43.6354C33.9093 43.858 33.7247 44.0604 33.489 44.0685Z" fill="url(#paint8_linear_22_4760)"/>
<path d="M34.2856 40.6925C34.0513 40.6785 33.914 40.5382 33.8902 40.2816C33.8701 40.0531 34.0513 39.8547 34.2654 39.8487C34.4759 39.8427 34.6736 40.0311 34.6663 40.2555C34.6571 40.5121 34.5308 40.6644 34.2856 40.6925Z" fill="url(#paint9_linear_22_4760)"/>
<path d="M33.8889 38.5568C33.8963 38.8123 33.7281 39.007 33.5076 39.005C33.2628 39.0009 33.1151 38.861 33.1114 38.5933C33.1077 38.3277 33.2478 38.1654 33.4908 38.1614C33.7319 38.1533 33.8683 38.3074 33.8889 38.5568Z" fill="url(#paint10_linear_22_4760)"/>
<defs>
<linearGradient id="paint0_linear_22_4760" x1="0" y1="0.907074" x2="77.5348" y2="70.8431" gradientUnits="userSpaceOnUse">
<stop stop-color="#F539F8"/>
<stop offset="0.416763" stop-color="#C342F9"/>
<stop offset="1" stop-color="#5356FB"/>
</linearGradient>
<linearGradient id="paint1_linear_22_4760" x1="23" y1="20.4382" x2="54.6816" y2="39.7274" gradientUnits="userSpaceOnUse">
<stop stop-color="#F539F8"/>
<stop offset="0.416763" stop-color="#C342F9"/>
<stop offset="1" stop-color="#5356FB"/>
</linearGradient>
<linearGradient id="paint2_linear_22_4760" x1="26.8887" y1="28.0336" x2="37.2737" y2="41.3039" gradientUnits="userSpaceOnUse">
<stop stop-color="#F539F8"/>
<stop offset="0.416763" stop-color="#C342F9"/>
<stop offset="1" stop-color="#5356FB"/>
</linearGradient>
<linearGradient id="paint3_linear_22_4760" x1="26.8887" y1="46.6005" x2="29.5164" y2="54.6593" gradientUnits="userSpaceOnUse">
<stop stop-color="#F539F8"/>
<stop offset="0.416763" stop-color="#C342F9"/>
<stop offset="1" stop-color="#5356FB"/>
</linearGradient>
<linearGradient id="paint4_linear_22_4760" x1="33.1113" y1="40.6925" x2="33.9982" y2="41.4925" gradientUnits="userSpaceOnUse">
<stop stop-color="#F539F8"/>
<stop offset="0.416763" stop-color="#C342F9"/>
<stop offset="1" stop-color="#5356FB"/>
</linearGradient>
<linearGradient id="paint5_linear_22_4760" x1="33.8887" y1="44.9125" x2="34.7755" y2="45.7124" gradientUnits="userSpaceOnUse">
<stop stop-color="#F539F8"/>
<stop offset="0.416763" stop-color="#C342F9"/>
<stop offset="1" stop-color="#5356FB"/>
</linearGradient>
<linearGradient id="paint6_linear_22_4760" x1="32.333" y1="45.7565" x2="33.2198" y2="46.5565" gradientUnits="userSpaceOnUse">
<stop stop-color="#F539F8"/>
<stop offset="0.416763" stop-color="#C342F9"/>
<stop offset="1" stop-color="#5356FB"/>
</linearGradient>
<linearGradient id="paint7_linear_22_4760" x1="33.8887" y1="41.5365" x2="34.7755" y2="42.3365" gradientUnits="userSpaceOnUse">
<stop stop-color="#F539F8"/>
<stop offset="0.416763" stop-color="#C342F9"/>
<stop offset="1" stop-color="#5356FB"/>
</linearGradient>
<linearGradient id="paint8_linear_22_4760" x1="33.1113" y1="43.2245" x2="33.9982" y2="44.0244" gradientUnits="userSpaceOnUse">
<stop stop-color="#F539F8"/>
<stop offset="0.416763" stop-color="#C342F9"/>
<stop offset="1" stop-color="#5356FB"/>
</linearGradient>
<linearGradient id="paint9_linear_22_4760" x1="33.8887" y1="39.8485" x2="34.7755" y2="40.6485" gradientUnits="userSpaceOnUse">
<stop stop-color="#F539F8"/>
<stop offset="0.416763" stop-color="#C342F9"/>
<stop offset="1" stop-color="#5356FB"/>
</linearGradient>
<linearGradient id="paint10_linear_22_4760" x1="33.1113" y1="38.1611" x2="33.9982" y2="38.961" gradientUnits="userSpaceOnUse">
<stop stop-color="#F539F8"/>
<stop offset="0.416763" stop-color="#C342F9"/>
<stop offset="1" stop-color="#5356FB"/>
</linearGradient>
</defs>
</svg>
