<svg width="25" height="25" viewBox="0 0 25 25" fill="none" xmlns="http://www.w3.org/2000/svg">
<path d="M25 12.5125C25.019 19.39 19.3853 24.9989 12.5054 25.0001C5.6017 25.0012 -0.0153836 19.3615 3.1653e-05 12.471C0.0154469 5.59949 5.63965 -0.0224583 12.5469 6.7456e-05C19.396 0.0225932 25.0297 5.61846 25 12.5125ZM14.3007 17.2097C14.3007 16.3324 14.3007 15.4551 14.3007 14.5778C14.3007 14.3525 14.3007 14.3525 14.5224 14.3525C16.2299 14.3525 17.9387 14.3525 19.6462 14.3513C19.7339 14.3513 19.8241 14.349 19.9106 14.3335C20.832 14.1711 21.4581 13.327 21.3798 12.356C21.3099 11.4775 20.4988 10.733 19.6011 10.7306C17.9031 10.7271 16.2062 10.7294 14.5082 10.7294C14.2995 10.7294 14.2995 10.7294 14.2995 10.5243C14.2995 8.7851 14.2995 7.04588 14.2983 5.30784C14.2983 5.22959 14.2983 5.15016 14.2805 5.07547C14.0588 4.16021 13.218 3.59588 12.3465 3.68599C11.3836 3.78676 10.697 4.55026 10.697 5.48212C10.697 7.14309 10.697 8.80288 10.697 10.4639C10.697 10.7555 10.7243 10.7294 10.4243 10.7294C8.79504 10.7294 7.16457 10.7401 5.5353 10.7259C4.40524 10.7152 3.60483 11.6293 3.63922 12.6216C3.67242 13.5451 4.45623 14.3513 5.37996 14.3513C7.08275 14.3513 8.78555 14.3513 10.4883 14.3513C10.697 14.3513 10.697 14.3525 10.697 14.5576C10.697 16.2387 10.697 17.9211 10.697 19.6022C10.697 19.6757 10.6935 19.7492 10.703 19.8215C10.8761 21.1256 12.2884 21.8358 13.4255 21.1719C13.9817 20.847 14.3066 20.3586 14.3018 19.684C14.2947 18.86 14.3007 18.0349 14.3007 17.2097Z" fill="white"/>
</svg>
